<mxfile host="app.diagrams.net" modified="2020-09-21T09:06:59.613Z" agent="5.0 (X11; Linux x86_64) AppleWebKit/537.36 (KHTML, like Gecko) Chrome/85.0.4183.102 Safari/537.36" etag="UPGKkuAuxVJDJ9KQeRn-" version="13.7.3" type="github">
  <diagram id="kgpKYQtTHZ0yAKxKKP6v" name="Page-1">
    <mxGraphModel dx="1127" dy="643" grid="1" gridSize="10" guides="1" tooltips="1" connect="1" arrows="1" fold="1" page="1" pageScale="1" pageWidth="850" pageHeight="1100" math="0" shadow="0">
      <root>
        <mxCell id="0" />
        <mxCell id="1" parent="0" />
        <mxCell id="8jEOWQN43G22aQzYSUDN-2" value="Hardware" style="rounded=0;whiteSpace=wrap;html=1;" vertex="1" parent="1">
          <mxGeometry x="360" y="80" width="120" height="60" as="geometry" />
        </mxCell>
        <mxCell id="8jEOWQN43G22aQzYSUDN-4" value="Logic Processor" style="rounded=0;whiteSpace=wrap;html=1;" vertex="1" parent="1">
          <mxGeometry x="600" y="80" width="120" height="60" as="geometry" />
        </mxCell>
        <mxCell id="8jEOWQN43G22aQzYSUDN-9" value="" style="endArrow=none;dashed=1;html=1;" edge="1" parent="1">
          <mxGeometry width="50" height="50" relative="1" as="geometry">
            <mxPoint x="180" y="480" as="sourcePoint" />
            <mxPoint x="180" y="140" as="targetPoint" />
          </mxGeometry>
        </mxCell>
        <mxCell id="8jEOWQN43G22aQzYSUDN-10" value="" style="endArrow=none;dashed=1;html=1;" edge="1" parent="1">
          <mxGeometry width="50" height="50" relative="1" as="geometry">
            <mxPoint x="419.65999999999997" y="479.9999999999999" as="sourcePoint" />
            <mxPoint x="419.65999999999997" y="140" as="targetPoint" />
          </mxGeometry>
        </mxCell>
        <mxCell id="8jEOWQN43G22aQzYSUDN-11" value="" style="endArrow=none;dashed=1;html=1;" edge="1" parent="1">
          <mxGeometry width="50" height="50" relative="1" as="geometry">
            <mxPoint x="660" y="479.9999999999999" as="sourcePoint" />
            <mxPoint x="660" y="140" as="targetPoint" />
          </mxGeometry>
        </mxCell>
        <mxCell id="8jEOWQN43G22aQzYSUDN-13" value="" style="shape=umlActor;verticalLabelPosition=bottom;verticalAlign=top;html=1;" vertex="1" parent="1">
          <mxGeometry x="160" y="70" width="40" height="70" as="geometry" />
        </mxCell>
        <mxCell id="8jEOWQN43G22aQzYSUDN-16" value="" style="endArrow=classic;html=1;" edge="1" parent="1">
          <mxGeometry width="50" height="50" relative="1" as="geometry">
            <mxPoint x="180" y="180" as="sourcePoint" />
            <mxPoint x="420" y="180" as="targetPoint" />
          </mxGeometry>
        </mxCell>
        <mxCell id="8jEOWQN43G22aQzYSUDN-17" value="Active sensor" style="text;html=1;align=center;verticalAlign=middle;resizable=0;points=[];autosize=1;" vertex="1" parent="1">
          <mxGeometry x="240" y="160" width="90" height="20" as="geometry" />
        </mxCell>
        <mxCell id="8jEOWQN43G22aQzYSUDN-19" value="" style="endArrow=classic;html=1;" edge="1" parent="1">
          <mxGeometry width="50" height="50" relative="1" as="geometry">
            <mxPoint x="420" y="200" as="sourcePoint" />
            <mxPoint x="660" y="200" as="targetPoint" />
          </mxGeometry>
        </mxCell>
        <mxCell id="8jEOWQN43G22aQzYSUDN-20" value="Send data" style="text;html=1;align=center;verticalAlign=middle;resizable=0;points=[];autosize=1;" vertex="1" parent="1">
          <mxGeometry x="510" y="180" width="70" height="20" as="geometry" />
        </mxCell>
        <mxCell id="8jEOWQN43G22aQzYSUDN-27" value="" style="endArrow=classic;html=1;dashed=1;" edge="1" parent="1">
          <mxGeometry width="50" height="50" relative="1" as="geometry">
            <mxPoint x="660.0000000000002" y="269.9999999999999" as="sourcePoint" />
            <mxPoint x="420" y="269.9999999999999" as="targetPoint" />
          </mxGeometry>
        </mxCell>
        <mxCell id="8jEOWQN43G22aQzYSUDN-30" value="Alt" style="shape=umlFrame;whiteSpace=wrap;html=1;fillColor=none;" vertex="1" parent="1">
          <mxGeometry x="70" y="230" width="640" height="170" as="geometry" />
        </mxCell>
        <mxCell id="8jEOWQN43G22aQzYSUDN-32" value="Validate" style="text;html=1;align=center;verticalAlign=middle;resizable=0;points=[];autosize=1;" vertex="1" parent="1">
          <mxGeometry x="500" y="250" width="60" height="20" as="geometry" />
        </mxCell>
        <mxCell id="8jEOWQN43G22aQzYSUDN-33" value="" style="endArrow=classic;html=1;dashed=1;" edge="1" parent="1">
          <mxGeometry width="50" height="50" relative="1" as="geometry">
            <mxPoint x="420" y="289.9999999999999" as="sourcePoint" />
            <mxPoint x="180" y="289.9999999999999" as="targetPoint" />
          </mxGeometry>
        </mxCell>
        <mxCell id="8jEOWQN43G22aQzYSUDN-34" value="Open door" style="text;html=1;align=center;verticalAlign=middle;resizable=0;points=[];autosize=1;" vertex="1" parent="1">
          <mxGeometry x="255" y="270" width="70" height="20" as="geometry" />
        </mxCell>
        <mxCell id="8jEOWQN43G22aQzYSUDN-36" value="" style="endArrow=classic;html=1;dashed=1;" edge="1" parent="1">
          <mxGeometry width="50" height="50" relative="1" as="geometry">
            <mxPoint x="660" y="359.9999999999999" as="sourcePoint" />
            <mxPoint x="420" y="359.9999999999999" as="targetPoint" />
          </mxGeometry>
        </mxCell>
        <mxCell id="8jEOWQN43G22aQzYSUDN-37" value="Not validate" style="text;html=1;align=center;verticalAlign=middle;resizable=0;points=[];autosize=1;" vertex="1" parent="1">
          <mxGeometry x="490" y="340" width="80" height="20" as="geometry" />
        </mxCell>
        <mxCell id="8jEOWQN43G22aQzYSUDN-38" value="" style="endArrow=classic;html=1;dashed=1;" edge="1" parent="1">
          <mxGeometry width="50" height="50" relative="1" as="geometry">
            <mxPoint x="420" y="379.9999999999999" as="sourcePoint" />
            <mxPoint x="180" y="379.9999999999999" as="targetPoint" />
          </mxGeometry>
        </mxCell>
        <mxCell id="8jEOWQN43G22aQzYSUDN-39" value="Not open door" style="text;html=1;align=center;verticalAlign=middle;resizable=0;points=[];autosize=1;" vertex="1" parent="1">
          <mxGeometry x="245" y="360" width="90" height="20" as="geometry" />
        </mxCell>
        <mxCell id="8jEOWQN43G22aQzYSUDN-41" value="" style="endArrow=none;dashed=1;html=1;exitX=0.001;exitY=0.532;exitDx=0;exitDy=0;exitPerimeter=0;entryX=1.005;entryY=0.532;entryDx=0;entryDy=0;entryPerimeter=0;" edge="1" parent="1" source="8jEOWQN43G22aQzYSUDN-30" target="8jEOWQN43G22aQzYSUDN-30">
          <mxGeometry width="50" height="50" relative="1" as="geometry">
            <mxPoint x="420" y="300" as="sourcePoint" />
            <mxPoint x="470" y="250" as="targetPoint" />
          </mxGeometry>
        </mxCell>
        <mxCell id="8jEOWQN43G22aQzYSUDN-45" value="[Validate]" style="text;html=1;align=center;verticalAlign=middle;resizable=0;points=[];autosize=1;" vertex="1" parent="1">
          <mxGeometry x="95" y="260" width="60" height="20" as="geometry" />
        </mxCell>
        <mxCell id="8jEOWQN43G22aQzYSUDN-46" value="[Not Validate]" style="text;html=1;align=center;verticalAlign=middle;resizable=0;points=[];autosize=1;" vertex="1" parent="1">
          <mxGeometry x="75" y="350" width="90" height="20" as="geometry" />
        </mxCell>
      </root>
    </mxGraphModel>
  </diagram>
</mxfile>
